<svg width="20" height="19" viewBox="0 0 20 19" fill="" xmlns="http://www.w3.org/2000/svg">
<path fill-rule="evenodd" clip-rule="evenodd" d="M8.97116 0.11084C7.86659 0.11084 6.97116 1.00627 6.97116 2.11084V2.6885L6.56263 2.27998C5.78159 1.49893 4.51526 1.49893 3.73421 2.27997L2.27976 3.73442C1.49871 4.51547 1.49871 5.7818 2.27976 6.56285L2.68831 6.97139H2.11086C1.00629 6.97139 0.110855 7.86682 0.110855 8.97139V11.0283C0.110855 12.1329 1.00629 13.0283 2.11085 13.0283H2.68861L2.27995 13.4369C1.4989 14.218 1.49889 15.4843 2.27995 16.2654L3.73439 17.7198C4.51544 18.5009 5.78177 18.5009 6.56282 17.7198L6.97116 17.3115V17.8892C6.97116 18.9937 7.86658 19.8892 8.97116 19.8892H11.0281C12.1326 19.8892 13.0281 18.9937 13.0281 17.8892V17.3111L13.4367 17.7198C14.2178 18.5008 15.4841 18.5008 16.2651 17.7198L17.7196 16.2654C18.5006 15.4843 18.5006 14.218 17.7196 13.4369L17.3109 13.0283H17.8892C18.9937 13.0283 19.8892 12.1329 19.8892 11.0283V8.97139C19.8892 7.86682 18.9937 6.97139 17.8892 6.97139H17.3112L17.7198 6.56287L17.0127 5.85576L17.7198 6.56287C18.5008 5.78182 18.5008 4.5155 17.7198 3.73445L16.2653 2.28C15.4843 1.49895 14.2179 1.49895 13.4369 2.28L13.0281 2.68884V2.11084C13.0281 1.00627 12.1326 0.11084 11.0281 0.11084H8.97116ZM8.97116 2.11084L11.0281 2.11084L11.0281 2.68884C11.0281 4.47065 13.1823 5.36299 14.4423 4.10306L14.8511 3.69421L16.3056 5.14866L15.897 5.55718C14.6371 6.81711 15.5294 8.97139 17.3112 8.97139H17.8892V11.0283L17.3109 11.0283C15.5291 11.0283 14.6368 13.1826 15.8967 14.4425L16.3054 14.8511L14.8509 16.3056L14.4423 15.8969C13.1823 14.637 11.0281 15.5293 11.0281 17.3111V17.8892H8.97116V17.3115C8.97116 15.5297 6.81687 14.6373 5.55694 15.8973L5.1486 16.3056L3.69416 14.8512L4.10282 14.4425C5.36275 13.1826 4.47041 11.0283 2.68861 11.0283H2.11086V8.97139L2.68831 8.97139C4.47012 8.97139 5.36245 6.81711 4.10252 5.55718L3.69397 5.14863L5.14842 3.69419L5.55694 4.10271C6.81687 5.36264 8.97116 4.47031 8.97116 2.6885V2.11084ZM8.25759 9.99998C8.25759 9.03768 9.03769 8.25758 9.99999 8.25758C10.9623 8.25758 11.7424 9.03768 11.7424 9.99998C11.7424 10.9623 10.9623 11.7424 9.99999 11.7424C9.03769 11.7424 8.25759 10.9623 8.25759 9.99998ZM9.99999 6.25758C7.93312 6.25758 6.25759 7.93311 6.25759 9.99998C6.25759 12.0668 7.93312 13.7424 9.99999 13.7424C12.0669 13.7424 13.7424 12.0668 13.7424 9.99998C13.7424 7.93311 12.0669 6.25758 9.99999 6.25758Z" />
</svg>
