<svg width="20" height="20" viewBox="0 0 20 20" fill="" xmlns="http://www.w3.org/2000/svg">
<g clip-path="url(#clip0_3_508)">
<path fill-rule="evenodd" clip-rule="evenodd" d="M15.8991 5.88747C16.4514 5.88747 16.8991 5.43976 16.8991 4.88747C16.8991 4.33519 16.4514 3.88747 15.8991 3.88747L7.30164 3.88747L8.74072 2.4484C9.13124 2.05787 9.13124 1.42471 8.74072 1.03418C8.35019 0.643658 7.71703 0.643658 7.3265 1.03418L4.18032 4.18037C3.7898 4.57089 3.7898 5.20406 4.18032 5.59458L7.3265 8.74076C7.71703 9.13129 8.35019 9.13129 8.74072 8.74076C9.13124 8.35024 9.13124 7.71707 8.74072 7.32655L7.30164 5.88747L15.8991 5.88747ZM4.10091 14.1125C3.54862 14.1125 3.10091 14.5602 3.10091 15.1125C3.10091 15.6648 3.54862 16.1125 4.10091 16.1125H12.6983L11.2593 17.5516C10.8687 17.9421 10.8687 18.5753 11.2593 18.9658C11.6498 19.3563 12.283 19.3563 12.6735 18.9658L15.8197 15.8196C16.2102 15.4291 16.2102 14.7959 15.8197 14.4054L12.6735 11.2592C12.283 10.8687 11.6498 10.8687 11.2593 11.2592C10.8687 11.6497 10.8687 12.2829 11.2593 12.6734L12.6983 14.1125H4.10091Z" />
</g>
<defs>
<clipPath id="clip0_3_508">
<rect width="20" height="20" fill="white"/>
</clipPath>
</defs>
</svg>
