<svg width="20" height="20" viewBox="0 0 20 20" fill="" xmlns="http://www.w3.org/2000/svg">
<path fill-rule="evenodd" clip-rule="evenodd" d="M14.8947 1.19727C13.2378 1.19727 11.8947 2.54041 11.8947 4.19727V7.28178C11.5819 7.17123 11.2453 7.11108 10.8947 7.11108H9.10535C7.44849 7.11108 6.10535 8.45423 6.10535 10.1111V11.3089C5.79258 11.1983 5.456 11.1382 5.10537 11.1382H3.31604C1.65919 11.1382 0.31604 12.4813 0.31604 14.1382V17.8026C0.31604 18.3548 0.763755 18.8026 1.31604 18.8026H7.10255L7.10535 18.8026H12.8947C12.9013 18.8026 12.9078 18.8025 12.9144 18.8024H18.684C19.2363 18.8024 19.684 18.3547 19.684 17.8024V4.19727C19.684 2.54041 18.3408 1.19727 16.684 1.19727H14.8947ZM11.8947 10.104V16.8026H8.10537V14.1382L8.10535 14.1257V10.1111C8.10535 9.5588 8.55306 9.11108 9.10535 9.11108H10.8947C11.4446 9.11108 11.8908 9.55496 11.8947 10.104ZM13.8947 16.8024H17.684V4.19727C17.684 3.64498 17.2363 3.19727 16.684 3.19727H14.8947C14.3424 3.19727 13.8947 3.64498 13.8947 4.19727V10.0988C13.8947 10.1029 13.8947 10.107 13.8947 10.1111V16.8024ZM6.10535 16.8026V14.131C6.10148 13.582 5.65526 13.1382 5.10537 13.1382H3.31604C2.76376 13.1382 2.31604 13.5859 2.31604 14.1382V16.8026H6.10535Z" />
</svg>
